<svg width="91" height="91" viewBox="0 0 91 91" fill="none" xmlns="http://www.w3.org/2000/svg">
<g clip-path="url(#clip0_316_1293)">
<g style="mix-blend-mode:luminosity">
<circle cx="45.5" cy="45.5" r="45.5" fill="#D9D9D9"/>
</g>
<path d="M44.4999 54.4266C48.8776 54.4266 52.4265 50.8778 52.4265 46.5001C52.4265 42.1223 48.8776 38.5735 44.4999 38.5735C40.1222 38.5735 36.5734 42.1223 36.5734 46.5001C36.5734 50.8778 40.1222 54.4266 44.4999 54.4266Z" fill="#61DAFB"/>
<path d="M74.607 33.4282C73.0773 32.8719 71.4781 32.3157 69.8093 31.829C70.2265 30.1602 70.5742 28.4915 70.8523 26.8922C72.3125 17.7141 70.7132 11.2477 66.2632 8.74458C64.9421 7.97974 63.482 7.63208 61.8132 7.63208C56.946 7.63208 50.7578 11.2477 44.5 17.2969C38.2421 11.2477 32.0539 7.63208 27.1867 7.63208C25.5179 7.63208 24.0578 7.97974 22.7367 8.74458C18.2867 11.3172 16.6875 17.7836 18.1476 26.8922C18.4257 28.4915 18.7734 30.1602 19.1906 31.829C17.5218 32.3157 15.9226 32.8024 14.3929 33.4282C5.70151 36.7657 0.973389 41.3547 0.973389 46.5C0.973389 51.6454 5.77105 56.2344 14.3929 59.5719C15.9226 60.1282 17.5218 60.6844 19.1906 61.1711C18.7734 62.8399 18.4257 64.5086 18.1476 66.1079C16.6875 75.286 18.2867 81.7524 22.7367 84.2555C24.0578 85.0204 25.5179 85.368 27.1867 85.368C32.1234 85.368 38.3117 81.7524 44.5 75.7032C50.7578 81.7524 56.946 85.368 61.8132 85.368C63.482 85.368 64.9421 85.0204 66.2632 84.2555C70.7132 81.6829 72.3125 75.2165 70.8523 66.1079C70.5742 64.5086 70.2265 62.8399 69.8093 61.1711C71.4781 60.6844 73.0773 60.1977 74.607 59.5719C83.2984 56.2344 88.0265 51.6454 88.0265 46.5C88.0265 41.3547 83.2984 36.7657 74.607 33.4282ZM64.3164 12.2211C67.1671 13.8899 68.1406 19.0352 66.9585 26.336C66.75 27.7961 66.4023 29.3258 65.9851 30.925C62.3695 30.0907 58.5453 29.5344 54.5125 29.1868C52.1484 25.8493 49.7148 22.8594 47.2812 20.1477C52.4265 15.0719 57.6414 11.5954 61.8828 11.5954C62.7867 11.5954 63.621 11.804 64.3164 12.2211ZM56.5289 53.4532C55.2773 55.6782 53.8171 57.9032 52.2874 60.1282C49.7148 60.3368 47.1421 60.4063 44.5 60.4063C41.7882 60.4063 39.2156 60.3368 36.7124 60.1282C35.1828 57.9032 33.7921 55.6782 32.5406 53.4532C31.2195 51.1586 29.9679 48.7946 28.8554 46.5C29.9679 44.2055 31.2195 41.8415 32.5406 39.5469C33.7921 37.3219 35.2523 35.0969 36.782 32.8719C39.3546 32.6633 41.9273 32.5938 44.5695 32.5938C47.2812 32.5938 49.8539 32.6633 52.357 32.8719C53.8867 35.0969 55.2773 37.3219 56.5289 39.5469C57.85 41.8415 59.1015 44.2055 60.214 46.5C59.032 48.7946 57.85 51.0891 56.5289 53.4532ZM62.2999 51.1586C63.3429 53.5922 64.1773 55.9563 64.9421 58.3204C62.5781 58.8766 60.0749 59.2938 57.4328 59.6415C58.2671 58.3204 59.171 56.9297 59.9359 55.4696C60.7703 54.0094 61.5351 52.5493 62.2999 51.1586ZM44.5 70.0016C42.8312 68.1938 41.232 66.2469 39.7023 64.2305C41.3015 64.3 42.9007 64.3696 44.5 64.3696C46.0992 64.3696 47.6984 64.3 49.2976 64.2305C47.7679 66.2469 46.1687 68.1938 44.5 70.0016ZM31.5671 59.5719C28.925 59.2243 26.4218 58.8071 24.0578 58.2508C24.8226 55.9563 25.657 53.5227 26.7 51.0891C27.4648 52.4797 28.2296 53.9399 29.064 55.3305C29.8984 56.8602 30.7328 58.1813 31.5671 59.5719ZM26.7 41.8415C25.657 39.4079 24.8226 37.0438 24.0578 34.6797C26.4218 34.1235 28.925 33.7063 31.5671 33.3586C30.7328 34.6797 29.8289 36.0704 29.064 37.5305C28.2296 38.9907 27.4648 40.4508 26.7 41.8415ZM44.5 22.9985C46.1687 24.8063 47.7679 26.7532 49.2976 28.7696C47.6984 28.7 46.0992 28.6305 44.5 28.6305C42.9007 28.6305 41.3015 28.7 39.7023 28.7696C41.232 26.7532 42.8312 24.8063 44.5 22.9985ZM59.9359 37.6L57.4328 33.4282C60.0749 33.7758 62.5781 34.193 64.9421 34.7493C64.1773 37.0438 63.3429 39.4774 62.2999 41.911C61.5351 40.4508 60.7703 38.9907 59.9359 37.6ZM22.0414 26.336C20.8593 19.0352 21.8328 13.8899 24.6835 12.2211C25.3789 11.804 26.2132 11.5954 27.1171 11.5954C31.289 11.5954 36.5039 15.0024 41.7187 20.1477C39.2851 22.7899 36.8515 25.8493 34.4874 29.1868C30.4546 29.5344 26.6304 30.1602 23.0148 30.925C22.5976 29.3258 22.3195 27.7961 22.0414 26.336ZM4.86714 46.5C4.86714 43.2321 8.83042 39.7555 15.7835 37.1829C17.1742 36.6266 18.7039 36.1399 20.2335 35.7227C21.346 39.1993 22.7367 42.8844 24.4054 46.5696C22.7367 50.2547 21.2765 53.8704 20.2335 57.3469C10.6382 54.5657 4.86714 50.3938 4.86714 46.5ZM24.6835 80.779C21.8328 79.1102 20.8593 73.9649 22.0414 66.6641C22.25 65.204 22.5976 63.6743 23.0148 62.0751C26.6304 62.9094 30.4546 63.4657 34.4874 63.8133C36.8515 67.1508 39.2851 70.1407 41.7187 72.8524C36.5734 77.9282 31.3585 81.4047 27.1171 81.4047C26.2132 81.4047 25.3789 81.1961 24.6835 80.779ZM66.9585 66.6641C68.1406 73.9649 67.1671 79.1102 64.3164 80.779C63.621 81.1961 62.7867 81.4047 61.8828 81.4047C57.7109 81.4047 52.496 77.9977 47.2812 72.8524C49.7148 70.2102 52.1484 67.1508 54.5125 63.8133C58.5453 63.4657 62.3695 62.8399 65.9851 62.0751C66.4023 63.6743 66.6804 65.204 66.9585 66.6641ZM73.2164 55.8172C71.8257 56.3735 70.296 56.8602 68.7664 57.2774C67.6539 53.8008 66.2632 50.1157 64.5945 46.4305C66.2632 42.7454 67.7234 39.1297 68.7664 35.6532C78.3617 38.4344 84.1328 42.6063 84.1328 46.5C84.1328 49.768 80.1 53.2446 73.2164 55.8172Z" fill="#61DAFB"/>
</g>
<defs>
<clipPath id="clip0_316_1293">
<rect width="91" height="91" fill="white"/>
</clipPath>
</defs>
</svg>
