<svg width="1061" height="144" viewBox="0 0 1061 144" fill="none" xmlns="http://www.w3.org/2000/svg">
<path d="M81.9999 20.2481C77.7977 20.2681 73.7866 20.6271 70.2553 21.2551C59.8543 23.1011 57.9672 26.9651 57.9672 34.0921V43.5031H82.5443V46.6401H48.7426C41.6003 46.6401 35.3458 50.9531 33.389 59.1611C31.1316 68.5661 31.0321 74.4361 33.389 84.2571C35.1358 91.5681 39.3081 96.7761 46.4514 96.7761H54.9026V85.4941C54.9026 77.3431 61.9205 70.1541 70.2563 70.1541H94.8056C101.639 70.1541 107.094 64.5001 107.094 57.6061V34.0931C107.094 27.4001 101.474 22.3731 94.8056 21.2561C90.5815 20.5501 86.2011 20.2291 81.9999 20.2481ZM68.7085 27.8171C71.2466 27.8171 73.3208 29.9341 73.3208 32.5381C73.3208 35.1311 71.2476 37.2281 68.7085 37.2281C66.1606 37.2281 64.0973 35.1311 64.0973 32.5381C64.0963 29.9341 66.1606 27.8171 68.7085 27.8171Z" fill="url(#paint0_linear_316_1150)"/>
<path d="M110.158 46.6399V57.6059C110.158 66.1059 102.984 73.2609 94.8046 73.2609H70.2553C63.5309 73.2609 57.9672 79.0439 57.9672 85.8099V109.325C57.9672 116.016 63.7579 119.953 70.2553 121.872C78.0346 124.169 85.4954 124.585 94.8046 121.872C100.991 120.071 107.093 116.449 107.093 109.325V99.9129H82.5443V96.7749H119.383C126.525 96.7749 129.189 91.7699 131.673 84.2559C134.239 76.5209 134.128 69.0819 131.673 59.1599C129.907 52.0149 126.536 46.6389 119.383 46.6389H110.158V46.6399ZM96.3503 106.187C98.8993 106.187 100.963 108.284 100.963 110.879C100.963 113.481 98.8983 115.598 96.3503 115.598C93.8122 115.598 91.739 113.481 91.739 110.879C91.739 108.284 93.8122 106.187 96.3503 106.187Z" fill="url(#paint1_linear_316_1150)"/>
<path opacity="0.444" d="M115.759 127.597C115.759 131.14 101.012 134.013 82.823 134.013C64.6327 134.013 49.8862 131.14 49.8862 127.597C49.8862 124.053 64.6317 121.18 82.823 121.18C101.012 121.18 115.759 124.052 115.759 127.597Z" fill="url(#paint2_radial_316_1150)"/>
<path d="M260.766 83.4001C267.033 83.4001 272.113 78.2961 272.113 72.0001C272.113 65.7041 267.033 60.6001 260.766 60.6001C254.5 60.6001 249.42 65.7041 249.42 72.0001C249.42 78.2961 254.5 83.4001 260.766 83.4001Z" fill="#61DAFB"/>
<path d="M303.863 53.2001C301.674 52.4001 299.384 51.6001 296.996 50.9001C297.593 48.5001 298.091 46.1001 298.489 43.8001C300.579 30.6001 298.29 21.3001 291.92 17.7001C290.029 16.6001 287.938 16.1001 285.55 16.1001C278.583 16.1001 269.724 21.3001 260.766 30.0001C251.809 21.3001 242.95 16.1001 235.983 16.1001C233.595 16.1001 231.504 16.6001 229.613 17.7001C223.243 21.4001 220.954 30.7001 223.044 43.8001C223.442 46.1001 223.94 48.5001 224.537 50.9001C222.148 51.6001 219.859 52.3001 217.67 53.2001C205.228 58.0001 198.46 64.6001 198.46 72.0001C198.46 79.4001 205.328 86.0001 217.67 90.8001C219.859 91.6001 222.148 92.4001 224.537 93.1001C223.94 95.5001 223.442 97.9001 223.044 100.2C220.954 113.4 223.243 122.7 229.613 126.3C231.504 127.4 233.595 127.9 235.983 127.9C243.05 127.9 251.908 122.7 260.766 114C269.724 122.7 278.583 127.9 285.55 127.9C287.938 127.9 290.029 127.4 291.92 126.3C298.29 122.6 300.579 113.3 298.489 100.2C298.091 97.9001 297.593 95.5001 296.996 93.1001C299.384 92.4001 301.674 91.7001 303.863 90.8001C316.305 86.0001 323.073 79.4001 323.073 72.0001C323.073 64.6001 316.305 58.0001 303.863 53.2001ZM289.133 22.7001C293.214 25.1001 294.607 32.5001 292.915 43.0001C292.616 45.1001 292.119 47.3001 291.522 49.6001C286.346 48.4001 280.872 47.6001 275.099 47.1001C271.715 42.3001 268.231 38.0001 264.748 34.1001C272.113 26.8001 279.578 21.8001 285.649 21.8001C286.943 21.8001 288.137 22.1001 289.133 22.7001ZM277.985 82.0001C276.194 85.2001 274.104 88.4001 271.914 91.6001C268.231 91.9001 264.549 92.0001 260.766 92.0001C256.885 92.0001 253.202 91.9001 249.619 91.6001C247.429 88.4001 245.439 85.2001 243.647 82.0001C241.756 78.7001 239.964 75.3001 238.372 72.0001C239.964 68.7001 241.756 65.3001 243.647 62.0001C245.439 58.8001 247.529 55.6001 249.719 52.4001C253.401 52.1001 257.084 52.0001 260.866 52.0001C264.748 52.0001 268.43 52.1001 272.013 52.4001C274.203 55.6001 276.194 58.8001 277.985 62.0001C279.876 65.3001 281.668 68.7001 283.26 72.0001C281.568 75.3001 279.876 78.6001 277.985 82.0001ZM286.246 78.7001C287.739 82.2001 288.934 85.6001 290.029 89.0001C286.645 89.8001 283.061 90.4001 279.279 90.9001C280.474 89.0001 281.767 87.0001 282.862 84.9001C284.057 82.8001 285.152 80.7001 286.246 78.7001ZM260.766 105.8C258.378 103.2 256.089 100.4 253.899 97.5001C256.188 97.6001 258.477 97.7001 260.766 97.7001C263.056 97.7001 265.345 97.6001 267.634 97.5001C265.444 100.4 263.155 103.2 260.766 105.8ZM242.254 90.8001C238.472 90.3001 234.888 89.7001 231.504 88.9001C232.599 85.6001 233.794 82.1001 235.287 78.6001C236.381 80.6001 237.476 82.7001 238.671 84.7001C239.865 86.9001 241.059 88.8001 242.254 90.8001ZM235.287 65.3001C233.794 61.8001 232.599 58.4001 231.504 55.0001C234.888 54.2001 238.472 53.6001 242.254 53.1001C241.059 55.0001 239.765 57.0001 238.671 59.1001C237.476 61.2001 236.381 63.3001 235.287 65.3001ZM260.766 38.2001C263.155 40.8001 265.444 43.6001 267.634 46.5001C265.345 46.4001 263.056 46.3001 260.766 46.3001C258.477 46.3001 256.188 46.4001 253.899 46.5001C256.089 43.6001 258.378 40.8001 260.766 38.2001ZM282.862 59.2001L279.279 53.2001C283.061 53.7001 286.645 54.3001 290.029 55.1001C288.934 58.4001 287.739 61.9001 286.246 65.4001C285.152 63.3001 284.057 61.2001 282.862 59.2001ZM228.618 43.0001C226.926 32.5001 228.319 25.1001 232.4 22.7001C233.395 22.1001 234.59 21.8001 235.884 21.8001C241.856 21.8001 249.32 26.7001 256.785 34.1001C253.302 37.9001 249.818 42.3001 246.434 47.1001C240.661 47.6001 235.187 48.5001 230.011 49.6001C229.414 47.3001 229.016 45.1001 228.618 43.0001ZM204.034 72.0001C204.034 67.3001 209.707 62.3001 219.66 58.6001C221.651 57.8001 223.84 57.1001 226.03 56.5001C227.623 61.5001 229.613 66.8001 232.002 72.1001C229.613 77.4001 227.523 82.6001 226.03 87.6001C212.295 83.6001 204.034 77.6001 204.034 72.0001ZM232.4 121.3C228.319 118.9 226.926 111.5 228.618 101C228.917 98.9001 229.414 96.7001 230.011 94.4001C235.187 95.6001 240.661 96.4001 246.434 96.9001C249.818 101.7 253.302 106 256.785 109.9C249.42 117.2 241.955 122.2 235.884 122.2C234.59 122.2 233.395 121.9 232.4 121.3ZM292.915 101C294.607 111.5 293.214 118.9 289.133 121.3C288.137 121.9 286.943 122.2 285.649 122.2C279.677 122.2 272.213 117.3 264.748 109.9C268.231 106.1 271.715 101.7 275.099 96.9001C280.872 96.4001 286.346 95.5001 291.522 94.4001C292.119 96.7001 292.517 98.9001 292.915 101ZM301.873 85.4001C299.882 86.2001 297.692 86.9001 295.503 87.5001C293.91 82.5001 291.92 77.2001 289.531 71.9001C291.92 66.6001 294.01 61.4001 295.503 56.4001C309.238 60.4001 317.499 66.4001 317.499 72.0001C317.499 76.7001 311.726 81.7001 301.873 85.4001Z" fill="#61DAFB"/>
<path d="M487.469 38.334L443.579 12.729C440.811 11.145 437.207 11.145 434.417 12.729L390.058 38.334C387.202 39.985 385.18 43.088 385.18 46.407V97.549C385.18 100.868 387.254 103.972 390.111 105.632L401.831 112.32C407.432 115.092 409.412 115.092 411.961 115.092C420.255 115.092 424.993 110.053 424.993 101.264V50.774C424.993 50.061 424.623 49 423.927 49H418.33C417.621 49 416.035 50.061 416.035 50.773V101.263C416.035 105.159 412.527 109.036 405.972 105.743L393.862 98.73C393.44 98.5 393.143 98.037 393.143 97.549V46.407C393.143 45.925 393.695 45.441 394.12 45.194L438.336 19.633C438.749 19.398 439.356 19.398 439.768 19.633L483.444 45.188C483.862 45.441 483.715 45.91 483.715 46.407V97.549C483.715 98.037 483.897 98.512 483.484 98.747L439.605 124.323C439.228 124.55 438.762 124.55 438.35 124.323L427.096 117.574C426.756 117.376 426.353 117.305 426.028 117.488C422.896 119.271 422.319 119.508 419.382 120.531C418.659 120.784 417.593 121.223 419.79 122.46L434.519 131.214C435.925 132.03 437.52 132.46 439.144 132.46C440.778 132.46 442.379 132.034 443.789 131.214L487.468 105.632C490.325 103.96 491.678 100.868 491.678 97.549V46.407C491.678 43.088 490.325 39.993 487.469 38.334ZM452.772 89.445C441.101 89.445 438.53 86.21 437.673 80.379C437.573 79.751 437.043 79 436.407 79H430.703C429.997 79 429.43 79.86 429.43 80.566C429.43 88.032 433.47 97.078 452.773 97.078C466.746 97.078 474.757 91.623 474.757 81.969C474.757 72.397 468.32 69.885 454.769 68.083C441.072 66.264 439.68 65.345 439.68 62.121C439.68 59.463 440.859 55.918 451.001 55.918C460.063 55.918 463.404 57.872 464.778 64.009C464.896 64.586 465.42 65 466.012 65H471.739C472.092 65 472.428 64.857 472.675 64.604C472.914 64.332 473.04 63.991 473.008 63.625C472.121 53.057 465.133 48.132 451 48.132C438.428 48.132 430.929 53.466 430.929 62.407C430.929 72.105 438.39 74.785 450.459 75.984C464.896 77.406 466.018 79.526 466.018 82.379C466.018 87.334 462.059 89.445 452.772 89.445Z" fill="#83CD29"/>
<path fill-rule="evenodd" clip-rule="evenodd" d="M564.491 62.8291C564.249 62.8291 564.19 62.7071 564.31 62.5261L565.577 60.8891C565.696 60.7071 565.999 60.5861 566.24 60.5861H587.775C588.017 60.5861 588.077 60.7681 587.957 60.9501L586.931 62.5261C586.811 62.7071 586.509 62.8891 586.328 62.8891L564.491 62.8291ZM555.382 68.4041C555.141 68.4041 555.08 68.2841 555.201 68.1011L556.468 66.4651C556.588 66.2831 556.89 66.1621 557.132 66.1621H584.638C584.879 66.1621 585 66.3441 584.94 66.5261L584.457 67.9801C584.397 68.2231 584.155 68.3441 583.915 68.3441L555.382 68.4041ZM569.979 73.9801C569.738 73.9801 569.679 73.7981 569.799 73.6161L570.643 72.1011C570.765 71.9191 571.005 71.7381 571.247 71.7381H583.31C583.552 71.7381 583.673 71.9191 583.673 72.1621L583.553 73.6161C583.553 73.8591 583.311 74.0411 583.13 74.0411L569.979 73.9801ZM632.594 61.7381C628.793 62.7081 626.199 63.4351 622.46 64.4041C621.554 64.6471 621.494 64.7071 620.71 63.7981C619.805 62.7681 619.142 62.1011 617.876 61.4951C614.074 59.6171 610.395 60.1621 606.957 62.4051C602.855 65.0711 600.744 69.0101 600.804 73.9191C600.864 78.7681 604.182 82.7681 608.948 83.4351C613.049 83.9801 616.488 82.5251 619.202 79.4351C619.745 78.7681 620.227 78.0411 620.831 77.1921H609.188C607.922 77.1921 607.621 76.4041 608.043 75.3741C608.827 73.4951 610.274 70.3441 611.118 68.7681C611.301 68.4041 611.723 67.7981 612.627 67.7981H634.584C634.464 69.4351 634.464 71.0711 634.223 72.7081C633.559 77.0711 631.93 81.0711 629.276 84.5861C624.932 90.3441 619.263 93.9191 612.084 94.8891C606.173 95.6771 600.684 94.5251 595.858 90.8891C591.394 87.4951 588.861 83.0101 588.197 77.4351C587.413 70.8291 589.343 64.8891 593.324 59.6771C597.607 54.0411 603.277 50.4651 610.215 49.1921C615.885 48.1621 621.313 48.8291 626.199 52.1621C629.396 54.2831 631.688 57.1921 633.196 60.7071C633.559 61.2531 633.318 61.5561 632.593 61.7371L632.594 61.7381Z" fill="#00ACD7"/>
<path d="M652.56 95.2532C647.071 95.1312 642.064 93.5562 637.841 89.9192C634.282 86.8292 632.051 82.8892 631.327 78.2222C630.241 71.3742 632.11 65.3132 636.213 59.9202C640.616 54.1012 645.924 51.0712 653.104 49.7982C659.256 48.7082 665.047 49.3142 670.295 52.8892C675.06 56.1622 678.015 60.5862 678.799 66.4042C679.825 74.5862 677.473 81.2532 671.862 86.9502C667.881 91.0102 662.995 93.5562 657.385 94.7072C655.757 95.0102 654.128 95.0712 652.56 95.2532ZM666.916 70.7682C666.857 69.9802 666.857 69.3742 666.735 68.7682C665.65 62.7682 660.16 59.3742 654.43 60.7082C648.82 61.9802 645.201 65.5562 643.874 71.2532C642.788 75.9802 645.08 80.7682 649.423 82.7072C652.741 84.1622 656.059 83.9802 659.256 82.3442C664.021 79.8592 666.615 75.9802 666.916 70.7682Z" fill="#00ACD7"/>
<path d="M846.407 38.7L798.333 10.9C797.537 10.4 796.442 10.2 795.248 10.2C794.053 10.2 792.959 10.5 792.162 10.9L744.387 38.7999C742.695 39.7999 741.501 42.2999 741.501 44.2V99.9C741.501 101 741.7 102.3 742.496 103.4L848.795 41.4C848.198 40.2 847.302 39.3 846.407 38.7Z" fill="#659AD3"/>
<path d="M742.198 103.3C742.695 104.1 743.392 104.8 744.089 105.2L792.063 133.1C792.859 133.6 793.954 133.8 795.148 133.8C796.343 133.8 797.437 133.5 798.234 133.1L846.009 105.2C847.701 104.2 848.895 101.7 848.895 99.8001V44.1C848.895 43.2 848.795 42.2 848.298 41.3L742.198 103.3Z" fill="#03599C"/>
<path d="M816.448 84.1C812.268 91.5 804.305 96.5 795.248 96.5C781.811 96.5 770.863 85.5 770.863 72C770.863 58.5 781.811 47.5 795.248 47.5C804.305 47.5 812.268 52.5 816.448 60L829.387 52.5C822.619 40.6 809.879 32.5 795.248 32.5C773.55 32.5 755.933 50.2 755.933 72C755.933 93.8 773.55 111.5 795.248 111.5C809.779 111.5 822.519 103.5 829.287 91.7L816.448 84.1Z" fill="white"/>
<path d="M957.102 106.12C957.102 106.12 952.357 108.894 960.483 109.83C970.329 110.96 975.36 110.798 986.207 108.738C986.207 108.738 989.064 110.533 993.048 112.089C968.723 122.559 937.999 111.482 957.102 106.12ZM954.128 92.4551C954.128 92.4551 948.805 96.4141 956.938 97.2601C967.455 98.3511 975.759 98.4401 990.135 95.6601C990.135 95.6601 992.119 97.6851 995.243 98.7911C965.84 107.431 933.09 99.4711 954.128 92.4551Z" fill="#0074BD"/>
<path d="M979.183 69.271C985.18 76.206 977.61 82.441 977.61 82.441C977.61 82.441 992.828 74.55 985.841 64.664C979.312 55.449 974.308 50.872 1001.4 35.084C1001.4 35.085 958.872 45.754 979.183 69.271Z" fill="#EA2D2E"/>
<path d="M1011.35 116.229C1011.35 116.229 1014.86 119.139 1007.48 121.388C993.447 125.66 949.052 126.948 936.722 121.559C932.292 119.621 940.603 116.934 943.217 116.367C945.944 115.774 947.5 115.882 947.5 115.882C942.57 112.395 915.637 122.732 933.822 125.697C983.409 133.773 1024.21 122.06 1011.35 116.229ZM959.386 78.294C959.386 78.294 936.807 83.683 951.391 85.642C957.55 86.47 969.822 86.28 981.261 85.316C990.607 84.527 999.986 82.842 999.986 82.842C999.986 82.842 996.693 84.261 994.309 85.895C971.375 91.956 927.081 89.133 939.834 82.937C950.616 77.698 959.386 78.294 959.386 78.294ZM999.892 101.041C1023.2 88.874 1012.42 77.181 1004.9 78.756C1003.06 79.141 1002.24 79.476 1002.24 79.476C1002.24 79.476 1002.92 78.397 1004.23 77.933C1019.11 72.678 1030.55 93.436 999.427 101.658C999.427 101.656 999.784 101.331 999.892 101.041Z" fill="#0074BD"/>
<path d="M985.841 9.58691C985.841 9.58691 998.748 22.5629 973.595 42.5099C953.424 58.5159 968.996 67.6399 973.588 78.0689C961.813 67.3959 953.175 57.9989 958.969 49.2539C967.477 36.4199 991.047 30.1949 985.841 9.58691Z" fill="#EA2D2E"/>
<path d="M961.677 134.021C984.048 135.458 1018.41 133.221 1019.22 122.585C1019.22 122.585 1017.66 126.617 1000.73 129.816C981.637 133.428 958.08 133.007 944.113 130.69C944.113 130.691 946.975 133.071 961.677 134.021Z" fill="#0074BD"/>
<rect opacity="0.2" x="-0.00463867" width="1061" height="144" rx="11" fill="#8F8EDB"/>
<defs>
<linearGradient id="paint0_linear_316_1150" x1="29.1946" y1="23.1907" x2="86.1055" y2="71.4964" gradientUnits="userSpaceOnUse">
<stop stop-color="#5A9FD4"/>
<stop offset="1" stop-color="#306998"/>
</linearGradient>
<linearGradient id="paint1_linear_316_1150" x1="107.209" y1="101.952" x2="86.7533" y2="73.4011" gradientUnits="userSpaceOnUse">
<stop stop-color="#FFD43B"/>
<stop offset="1" stop-color="#FFE873"/>
</linearGradient>
<radialGradient id="paint2_radial_316_1150" cx="0" cy="0" r="1" gradientUnits="userSpaceOnUse" gradientTransform="translate(82.6899 127.413) rotate(-90) scale(6.41832 28.0815)">
<stop stop-color="#B8B8B8" stop-opacity="0.498"/>
<stop offset="1" stop-color="#7F7F7F" stop-opacity="0"/>
</radialGradient>
</defs>
</svg>
